<svg width="34" height="34" viewBox="0 0 34 34" fill="none" xmlns="http://www.w3.org/2000/svg">
<path d="M17 0.75C13.7861 0.75 10.6443 1.70305 7.97199 3.48862C5.29969 5.27419 3.21689 7.81209 1.98696 10.7814C0.757041 13.7507 0.435237 17.018 1.06225 20.1702C1.68926 23.3224 3.23692 26.2179 5.50952 28.4905C7.78213 30.7631 10.6776 32.3107 13.8298 32.9378C16.982 33.5648 20.2493 33.243 23.2186 32.013C26.1879 30.7831 28.7258 28.7003 30.5114 26.028C32.297 23.3557 33.25 20.2139 33.25 17C33.2455 12.6916 31.5319 8.56102 28.4855 5.51454C25.439 2.46806 21.3084 0.75455 17 0.75ZM17 30.75C14.2805 30.75 11.6221 29.9436 9.36092 28.4327C7.09974 26.9218 5.33737 24.7744 4.29666 22.2619C3.25596 19.7494 2.98366 16.9847 3.51421 14.3175C4.04476 11.6503 5.35432 9.20025 7.27729 7.27728C9.20026 5.35431 11.6503 4.04475 14.3175 3.5142C16.9848 2.98366 19.7494 3.25595 22.2619 4.29666C24.7744 5.33736 26.9218 7.09973 28.4327 9.36091C29.9436 11.6221 30.75 14.2805 30.75 17C30.7459 20.6455 29.2959 24.1404 26.7182 26.7182C24.1404 29.2959 20.6455 30.7459 17 30.75ZM9.50001 13.875C9.50001 13.5042 9.60997 13.1416 9.816 12.8333C10.022 12.525 10.3149 12.2846 10.6575 12.1427C11.0001 12.0008 11.3771 11.9637 11.7408 12.036C12.1045 12.1084 12.4386 12.287 12.7008 12.5492C12.9631 12.8114 13.1416 13.1455 13.214 13.5092C13.2863 13.8729 13.2492 14.2499 13.1073 14.5925C12.9654 14.9351 12.725 15.228 12.4167 15.434C12.1084 15.64 11.7458 15.75 11.375 15.75C10.8777 15.75 10.4008 15.5525 10.0492 15.2008C9.69755 14.8492 9.50001 14.3723 9.50001 13.875ZM24.5 13.875C24.5 14.2458 24.39 14.6084 24.184 14.9167C23.978 15.225 23.6851 15.4654 23.3425 15.6073C22.9999 15.7492 22.6229 15.7863 22.2592 15.714C21.8955 15.6416 21.5614 15.463 21.2992 15.2008C21.037 14.9386 20.8584 14.6045 20.786 14.2408C20.7137 13.8771 20.7508 13.5001 20.8927 13.1575C21.0346 12.8149 21.275 12.522 21.5833 12.316C21.8917 12.11 22.2542 12 22.625 12C23.1223 12 23.5992 12.1975 23.9508 12.5492C24.3025 12.9008 24.5 13.3777 24.5 13.875ZM24.3313 23.875C24.4217 24.0173 24.4824 24.1764 24.5098 24.3427C24.5372 24.5091 24.5306 24.6792 24.4905 24.843C24.4504 25.0067 24.3775 25.1607 24.2764 25.2955C24.1753 25.4304 24.0479 25.5434 23.9019 25.6278C23.756 25.7122 23.5944 25.7661 23.4271 25.7865C23.2597 25.8068 23.09 25.7931 22.9281 25.7461C22.7662 25.6991 22.6154 25.6199 22.4849 25.5131C22.3545 25.4064 22.2469 25.2744 22.1688 25.125C21.0016 23.1078 19.1672 22 17 22C14.8328 22 12.9984 23.1094 11.8313 25.125C11.7531 25.2744 11.6456 25.4064 11.5151 25.5131C11.3846 25.6199 11.2338 25.6991 11.0719 25.7461C10.91 25.7931 10.7403 25.8068 10.5729 25.7865C10.4056 25.7661 10.2441 25.7122 10.0981 25.6278C9.95214 25.5434 9.82476 25.4304 9.72361 25.2955C9.62247 25.1607 9.54965 25.0067 9.50954 24.843C9.46944 24.6792 9.46286 24.5091 9.49022 24.3427C9.51759 24.1764 9.57831 24.0173 9.66876 23.875C11.2766 21.0953 13.9484 19.5 17 19.5C20.0516 19.5 22.7234 21.0938 24.3313 23.875Z" fill="#201B10"/>
</svg>
